# xmcd
#
# Track frame offsets: 
#        150
#        21230
#        42157
#        63237
#
# Disc length: 1121 seconds
#
# Revision: 34
# Processed by: cddbd v1.5.2PL0 Copyright (c) Steve Scherf et al.
# Submitted via: ExactAudioCopyFreeDBPlugin 1.0
#
DISCID=2b045f04
DTITLE=SMAP - 世界に一つだけの花
DYEAR=2003
DGENRE=JPop
TTITLE0=世界に一つだけの花（シングル・ヴァージョン）
TTITLE1=僕は君を連れてゆく
TTITLE2=世界に一つだけの花（ミュージック・トラック）
TTITLE3=僕は君を連れてゆく（ミュージック・トラック）
EXTD=YEAR: 2003
EXTT0=
EXTT1=
EXTT2=
EXTT3=
PLAYORDER=
